<?xml version="1.0" encoding="UTF-8" standalone="no"?>
<svg
   xmlns:dc="http://purl.org/dc/elements/1.1/"
   xmlns:cc="http://creativecommons.org/ns#"
   xmlns:rdf="http://www.w3.org/1999/02/22-rdf-syntax-ns#"
   xmlns:svg="http://www.w3.org/2000/svg"
   xmlns="http://www.w3.org/2000/svg"
   xmlns:sodipodi="http://sodipodi.sourceforge.net/DTD/sodipodi-0.dtd"
   xmlns:inkscape="http://www.inkscape.org/namespaces/inkscape"
   width="148.43427mm"
   height="77.510857mm"
   viewBox="0 0 148.43427 77.510857"
   version="1.1"
   id="svg8"
   inkscape:version="1.0.1 (3bc2e813f5, 2020-09-07)"
   sodipodi:docname="blockd.svg">
  <defs
     id="defs2">
    <clipPath
       clipPathUnits="userSpaceOnUse"
       id="clipPath26">
      <path
         d="M 0,0 H 2554.1667 V 3301.5081 H 0 Z"
         clip-rule="evenodd"
         id="path24" />
    </clipPath>
    <clipPath
       clipPathUnits="userSpaceOnUse"
       id="clipPath40">
      <path
         d="M 0,0 H 2554.1667 V 3301.5081 H 0 Z"
         clip-rule="evenodd"
         id="path38" />
    </clipPath>
  </defs>
  <sodipodi:namedview
     id="base"
     pagecolor="#ffffff"
     bordercolor="#666666"
     borderopacity="1.0"
     inkscape:pageopacity="0.0"
     inkscape:pageshadow="2"
     inkscape:zoom="1.979899"
     inkscape:cx="218.40407"
     inkscape:cy="131.34121"
     inkscape:document-units="mm"
     inkscape:current-layer="g18"
     inkscape:document-rotation="0"
     showgrid="false"
     fit-margin-top="0"
     fit-margin-left="0"
     fit-margin-right="0"
     fit-margin-bottom="0"
     inkscape:window-width="2560"
     inkscape:window-height="1377"
     inkscape:window-x="-8"
     inkscape:window-y="-8"
     inkscape:window-maximized="1" />
  <metadata
     id="metadata5">
    <rdf:RDF>
      <cc:Work
         rdf:about="">
        <dc:format>image/svg+xml</dc:format>
        <dc:type
           rdf:resource="http://purl.org/dc/dcmitype/StillImage" />
        <dc:title></dc:title>
      </cc:Work>
    </rdf:RDF>
  </metadata>
  <g
     inkscape:label="Layer 1"
     inkscape:groupmode="layer"
     id="layer1"
     transform="translate(80.129073,-92.11154)">
    <g
       id="g18"
       inkscape:label="Untitled Diagram"
       transform="matrix(0.08466666,0,0,0.08466666,-86.959712,85.509982)">
      <g
         id="g20">
        <g
           id="g22"
           clip-path="url(#clipPath26)">
          <g
             id="g28"
             transform="scale(3.0013709)">
            <path
               d="M 0,0 H 851 V 1100 H 0 Z"
               style="fill:#ffffff;fill-opacity:1;fill-rule:nonzero;stroke:none"
               id="path30" />
            <path
               d="M 0,0 H 851 V 1100 H 0 Z"
               style="fill:#ffffff;fill-opacity:1;fill-rule:nonzero;stroke:none"
               id="path32" />
          </g>
        </g>
      </g>
      <g
         id="g34">
        <g
           id="g36"
           clip-path="url(#clipPath40)">
          <g
             id="g42"
             transform="matrix(3.0013709,0,0,3.0013709,1.5006854,1.5006854)">
            <path
               d="m 222,50 h 196 c 1.37555,0 2.74777,0.06741 4.1167,0.20224 1.36893,0.13483 2.72794,0.336422 4.07703,0.604774 1.34915,0.268361 2.68188,0.602192 3.9982,1.001492 1.31634,0.399303 2.60992,0.862152 3.88073,1.38855 1.27085,0.526401 2.51285,1.113815 3.72595,1.762249 1.21314,0.648426 2.39158,1.354748 3.53528,2.118965 1.14377,0.764217 2.24729,1.582649 3.31061,2.455288 1.06332,0.872642 2.0813,1.795292 3.05396,2.767952 0.97268,0.97266 1.89532,1.99065 2.76794,3.053966 0.87265,1.063317 1.69107,2.166832 2.45526,3.310563 0.76422,1.14373 1.47055,2.322158 2.11899,3.535285 0.64841,1.213135 1.23584,2.455124 1.76224,3.72596 0.52643,1.270851 0.98929,2.564438 1.38861,3.88076 0.39929,1.316323 0.73309,2.649041 1.00143,3.998154 0.2684,1.349121 0.47,2.708145 0.60483,4.07708 C 459.93259,89.252213 460,90.624451 460,92 v 196 c 0,1.37555 -0.0674,2.7478 -0.20227,4.11673 -0.1348,1.36893 -0.3364,2.72797 -0.6048,4.07706 -0.26834,1.34912 -0.60214,2.68185 -1.00146,3.99817 -0.39929,1.31631 -0.86215,2.60989 -1.38858,3.8807 -0.5264,1.27085 -1.1138,2.51285 -1.76221,3.72599 -0.64844,1.2131 -1.35477,2.39154 -2.11899,3.53527 -0.76422,1.14374 -1.58264,2.24726 -2.45526,3.31058 -0.87265,1.06332 -1.79529,2.08133 -2.76797,3.05396 -0.97266,0.97268 -1.99067,1.89532 -3.05399,2.76794 -1.06329,0.87265 -2.16681,1.69107 -3.31058,2.45526 -1.1437,0.76425 -2.32214,1.47058 -3.53528,2.11899 -1.2131,0.64844 -2.4551,1.23584 -3.72595,1.76224 -1.27081,0.52643 -2.56439,0.98929 -3.88073,1.38861 -1.31632,0.39926 -2.64902,0.73309 -3.99817,1.00143 -1.34912,0.2684 -2.70813,0.47 -4.07706,0.60483 C 420.74777,329.93259 419.37555,330 418,330 H 222 c -1.37555,0 -2.74779,-0.0674 -4.11673,-0.20224 -1.36891,-0.13483 -2.72795,-0.33643 -4.07709,-0.60483 -1.3491,-0.26834 -2.68182,-0.60217 -3.99814,-1.00146 -1.31633,-0.39929 -2.6099,-0.86215 -3.88076,-1.38858 -1.27083,-0.5264 -2.51282,-1.1138 -3.72596,-1.76224 -1.21313,-0.64841 -2.39157,-1.35471 -3.53529,-2.11896 -1.14372,-0.76419 -2.24724,-1.58261 -3.31055,-2.45526 -1.0633,-0.87265 -2.08129,-1.79529 -3.05397,-2.76797 -0.97265,-0.97263 -1.89531,-1.99064 -2.76794,-3.05396 -0.87264,-1.06332 -1.69107,-2.16687 -2.45531,-3.31061 -0.7642,-1.1437 -1.47053,-2.32214 -2.11896,-3.53528 -0.64843,-1.2131 -1.23585,-2.4551 -1.76225,-3.72595 -0.5264,-1.27081 -0.98924,-2.56439 -1.38855,-3.8807 -0.39931,-1.31632 -0.73312,-2.64905 -1.00148,-3.99817 -0.26835,-1.34909 -0.46994,-2.70813 -0.60476,-4.07706 C 180.06741,290.7478 180,289.37555 180,288 V 92 c 0,-1.375549 0.0674,-2.747787 0.20224,-4.116714 0.13484,-1.368935 0.33643,-2.727967 0.60478,-4.077088 0.26836,-1.349113 0.60217,-2.681839 1.00148,-3.998161 0.39931,-1.316323 0.86215,-2.609902 1.38855,-3.880753 0.5264,-1.270836 1.11382,-2.512825 1.76225,-3.72596 0.64843,-1.213127 1.35476,-2.391555 2.11896,-3.535285 0.76424,-1.143731 1.58267,-2.247246 2.45531,-3.310563 0.87263,-1.063316 1.79529,-2.081306 2.76794,-3.053966 0.97268,-0.97266 1.99067,-1.89531 3.05397,-2.767952 1.06331,-0.872639 2.16683,-1.691071 3.31055,-2.455288 1.14372,-0.764217 2.32216,-1.470539 3.53529,-2.118969 1.21314,-0.64843 2.45513,-1.235844 3.72596,-1.762245 1.27086,-0.526398 2.56445,-0.989247 3.88078,-1.388546 1.31631,-0.399304 2.64903,-0.733132 3.99814,-1.001492 1.34913,-0.268352 2.70816,-0.469944 4.07709,-0.604774 C 219.25221,50.067413 220.62445,50 222,50 Z"
               style="fill:#ffffff;fill-opacity:1;fill-rule:nonzero;stroke:none"
               id="path44" />
            <path
               d="m 222,50 h 196 c 1.37555,0 2.74777,0.06741 4.1167,0.20224 1.36893,0.13483 2.72794,0.336422 4.07703,0.604774 1.34915,0.268361 2.68188,0.602192 3.9982,1.001492 1.31634,0.399303 2.60992,0.862152 3.88073,1.38855 1.27085,0.526401 2.51285,1.113815 3.72595,1.762249 1.21314,0.648426 2.39158,1.354748 3.53528,2.118965 1.14377,0.764217 2.24729,1.582649 3.31061,2.455288 1.06332,0.872642 2.0813,1.795292 3.05396,2.767952 0.97268,0.97266 1.89532,1.99065 2.76794,3.053966 0.87265,1.063317 1.69107,2.166832 2.45526,3.310563 0.76422,1.14373 1.47055,2.322158 2.11899,3.535285 0.64841,1.213135 1.23584,2.455124 1.76224,3.72596 0.52643,1.270851 0.98929,2.564438 1.38861,3.88076 0.39929,1.316323 0.73309,2.649041 1.00143,3.998154 0.2684,1.349121 0.47,2.708145 0.60483,4.07708 C 459.93259,89.252213 460,90.624451 460,92 v 196 c 0,1.37555 -0.0674,2.7478 -0.20227,4.11673 -0.1348,1.36893 -0.3364,2.72797 -0.6048,4.07706 -0.26834,1.34912 -0.60214,2.68185 -1.00146,3.99817 -0.39929,1.31631 -0.86215,2.60989 -1.38858,3.8807 -0.5264,1.27085 -1.1138,2.51285 -1.76221,3.72599 -0.64844,1.2131 -1.35477,2.39154 -2.11899,3.53527 -0.76422,1.14374 -1.58264,2.24726 -2.45526,3.31058 -0.87265,1.06332 -1.79529,2.08133 -2.76797,3.05396 -0.97266,0.97268 -1.99067,1.89532 -3.05399,2.76794 -1.06329,0.87265 -2.16681,1.69107 -3.31058,2.45526 -1.1437,0.76425 -2.32214,1.47058 -3.53528,2.11899 -1.2131,0.64844 -2.4551,1.23584 -3.72595,1.76224 -1.27081,0.52643 -2.56439,0.98929 -3.88073,1.38861 -1.31632,0.39926 -2.64902,0.73309 -3.99817,1.00143 -1.34912,0.2684 -2.70813,0.47 -4.07706,0.60483 C 420.74777,329.93259 419.37555,330 418,330 H 222 c -1.37555,0 -2.74779,-0.0674 -4.11673,-0.20224 -1.36891,-0.13483 -2.72795,-0.33643 -4.07709,-0.60483 -1.3491,-0.26834 -2.68182,-0.60217 -3.99814,-1.00146 -1.31633,-0.39929 -2.6099,-0.86215 -3.88076,-1.38858 -1.27083,-0.5264 -2.51282,-1.1138 -3.72596,-1.76224 -1.21313,-0.64841 -2.39157,-1.35471 -3.53529,-2.11896 -1.14372,-0.76419 -2.24724,-1.58261 -3.31055,-2.45526 -1.0633,-0.87265 -2.08129,-1.79529 -3.05397,-2.76797 -0.97265,-0.97263 -1.89531,-1.99064 -2.76794,-3.05396 -0.87264,-1.06332 -1.69107,-2.16687 -2.45531,-3.31061 -0.7642,-1.1437 -1.47053,-2.32214 -2.11896,-3.53528 -0.64843,-1.2131 -1.23585,-2.4551 -1.76225,-3.72595 -0.5264,-1.27081 -0.98924,-2.56439 -1.38855,-3.8807 -0.39931,-1.31632 -0.73312,-2.64905 -1.00148,-3.99817 -0.26835,-1.34909 -0.46994,-2.70813 -0.60476,-4.07706 C 180.06741,290.7478 180,289.37555 180,288 V 92 c 0,-1.375549 0.0674,-2.747787 0.20224,-4.116714 0.13484,-1.368935 0.33643,-2.727967 0.60478,-4.077088 0.26836,-1.349113 0.60217,-2.681839 1.00148,-3.998161 0.39931,-1.316323 0.86215,-2.609902 1.38855,-3.880753 0.5264,-1.270836 1.11382,-2.512825 1.76225,-3.72596 0.64843,-1.213127 1.35476,-2.391555 2.11896,-3.535285 0.76424,-1.143731 1.58267,-2.247246 2.45531,-3.310563 0.87263,-1.063316 1.79529,-2.081306 2.76794,-3.053966 0.97268,-0.97266 1.99067,-1.89531 3.05397,-2.767952 1.06331,-0.872639 2.16683,-1.691071 3.31055,-2.455288 1.14372,-0.764217 2.32216,-1.470539 3.53529,-2.118969 1.21314,-0.64843 2.45513,-1.235844 3.72596,-1.762245 1.27086,-0.526398 2.56445,-0.989247 3.88078,-1.388546 1.31631,-0.399304 2.64903,-0.733132 3.99814,-1.001492 1.34913,-0.268352 2.70816,-0.469944 4.07709,-0.604774 C 219.25221,50.067413 220.62445,50 222,50 Z"
               style="fill:none;stroke:#000000;stroke-width:1;stroke-linecap:butt;stroke-linejoin:miter;stroke-miterlimit:10;stroke-dasharray:none;stroke-opacity:1"
               id="path46" />
            <path
               d="m 338,70 h 84 c 1.18185,0 2.35239,0.115288 3.51157,0.345863 1.15921,0.230576 2.28476,0.572007 3.37667,1.0243 1.09192,0.452286 2.12925,1.006744 3.11194,1.663376 0.98273,0.656624 1.89197,1.402801 2.72769,2.238533 0.83573,0.835724 1.58191,1.744942 2.23853,2.727646 0.65662,0.982712 1.21106,2.020035 1.66336,3.111961 0.4523,1.091934 0.79373,2.217491 1.02432,3.376679 C 439.88467,85.647552 439.99997,86.8181 440,88 v 84 c -3e-5,1.18188 -0.11533,2.35242 -0.34592,3.51161 -0.23059,1.1592 -0.57202,2.28475 -1.02432,3.37667 -0.4523,1.09193 -1.00674,2.12925 -1.66333,3.11196 -0.65665,0.98272 -1.40283,1.89193 -2.23856,2.72767 -0.83572,0.83572 -1.74496,1.58189 -2.72766,2.23852 -0.98272,0.65663 -2.02005,1.21109 -3.11197,1.66338 -1.09191,0.4523 -2.21746,0.79373 -3.37664,1.0243 -1.15921,0.23058 -2.32975,0.34587 -3.5116,0.34589 h -84 c -1.18192,-2e-5 -2.35248,-0.11531 -3.51169,-0.34589 -1.15918,-0.23057 -2.28473,-0.572 -3.37665,-1.0243 -1.09192,-0.45229 -2.12924,-1.00675 -3.11193,-1.66338 -0.9827,-0.65663 -1.89194,-1.4028 -2.72767,-2.23852 -0.83575,-0.83574 -1.58194,-1.74495 -2.23858,-2.72767 -0.65662,-0.98271 -1.21106,-2.02003 -1.66336,-3.11196 -0.4523,-1.09192 -0.79373,-2.21747 -1.02429,-3.37667 C 320.11526,174.35242 319.99997,173.18188 320,172 V 88 c -3e-5,-1.1819 0.11526,-2.352448 0.34583,-3.511642 0.23056,-1.159188 0.57199,-2.284745 1.02429,-3.376679 0.4523,-1.091926 1.00674,-2.129249 1.66336,-3.111961 0.65664,-0.982704 1.40283,-1.891922 2.23858,-2.727646 0.83573,-0.835732 1.74497,-1.581909 2.72767,-2.238533 0.98269,-0.656632 2.02001,-1.21109 3.11193,-1.663376 1.09192,-0.452293 2.21747,-0.793724 3.37665,-1.0243 C 335.64752,70.115288 336.81808,70 338,70 Z"
               style="fill:#ffffff;fill-opacity:1;fill-rule:nonzero;stroke:none"
               id="path48" />
            <path
               d="m 338,70 h 84 c 1.18185,0 2.35239,0.115288 3.51157,0.345863 1.15921,0.230576 2.28476,0.572007 3.37667,1.0243 1.09192,0.452286 2.12925,1.006744 3.11194,1.663376 0.98273,0.656624 1.89197,1.402801 2.72769,2.238533 0.83573,0.835724 1.58191,1.744942 2.23853,2.727646 0.65662,0.982712 1.21106,2.020035 1.66336,3.111961 0.4523,1.091934 0.79373,2.217491 1.02432,3.376679 C 439.88467,85.647552 439.99997,86.8181 440,88 v 84 c -3e-5,1.18188 -0.11533,2.35242 -0.34592,3.51161 -0.23059,1.1592 -0.57202,2.28475 -1.02432,3.37667 -0.4523,1.09193 -1.00674,2.12925 -1.66333,3.11196 -0.65665,0.98272 -1.40283,1.89193 -2.23856,2.72767 -0.83572,0.83572 -1.74496,1.58189 -2.72766,2.23852 -0.98272,0.65663 -2.02005,1.21109 -3.11197,1.66338 -1.09191,0.4523 -2.21746,0.79373 -3.37664,1.0243 -1.15921,0.23058 -2.32975,0.34587 -3.5116,0.34589 h -84 c -1.18192,-2e-5 -2.35248,-0.11531 -3.51169,-0.34589 -1.15918,-0.23057 -2.28473,-0.572 -3.37665,-1.0243 -1.09192,-0.45229 -2.12924,-1.00675 -3.11193,-1.66338 -0.9827,-0.65663 -1.89194,-1.4028 -2.72767,-2.23852 -0.83575,-0.83574 -1.58194,-1.74495 -2.23858,-2.72767 -0.65662,-0.98271 -1.21106,-2.02003 -1.66336,-3.11196 -0.4523,-1.09192 -0.79373,-2.21747 -1.02429,-3.37667 C 320.11526,174.35242 319.99997,173.18188 320,172 V 88 c -3e-5,-1.1819 0.11526,-2.352448 0.34583,-3.511642 0.23056,-1.159188 0.57199,-2.284745 1.02429,-3.376679 0.4523,-1.091926 1.00674,-2.129249 1.66336,-3.111961 0.65664,-0.982704 1.40283,-1.891922 2.23858,-2.727646 0.83573,-0.835732 1.74497,-1.581909 2.72767,-2.238533 0.98269,-0.656632 2.02001,-1.21109 3.11193,-1.663376 1.09192,-0.452293 2.21747,-0.793724 3.37665,-1.0243 C 335.64752,70.115288 336.81808,70 338,70 Z"
               style="fill:none;stroke:#000000;stroke-width:1;stroke-linecap:butt;stroke-linejoin:miter;stroke-miterlimit:10;stroke-dasharray:none;stroke-opacity:1"
               id="path50" />
          </g>
          <g
             id="g52"
             transform="scale(3.0013709)">
            <text
               transform="translate(350,114)"
               style="font-variant:normal;font-weight:normal;font-size:12px;font-family:Arial;-inkscape-font-specification:ArialMT;writing-mode:lr-tb;fill:#000000;fill-opacity:1;fill-rule:nonzero;stroke:none"
               id="text56"><tspan
                 x="0 8.6660156 19.992188 29.988281 36.662109 43.335938 46.001953 49.335938 56.009766"
                 y="0"
                 sodipodi:role="line"
                 id="tspan54">HWmonitor</tspan></text>
            <text
               transform="translate(341.3125,128)"
               style="font-variant:normal;font-weight:normal;font-size:12px;font-family:Arial;-inkscape-font-specification:ArialMT;writing-mode:lr-tb;fill:#000000;fill-opacity:1;fill-rule:nonzero;stroke:none"
               id="text60"><tspan
                 x="0 8.0039062 16.669922 23.34375 30.017578 36.691406 43.365234 51.369141 60.035156 70.03125"
                 y="0"
                 sodipodi:role="line"
                 id="tspan58">AD5324ARMZ</tspan></text>
            <text
               transform="translate(376.5,142)"
               style="font-variant:normal;font-weight:normal;font-size:12px;font-family:Arial;-inkscape-font-specification:ArialMT;writing-mode:lr-tb;fill:#000000;fill-opacity:1;fill-rule:nonzero;stroke:none"
               id="text64"><tspan
                 x="0"
                 y="0"
                 id="tspan62">+</tspan></text>
            <text
               transform="translate(349.76563,156)"
               style="font-variant:normal;font-weight:normal;font-size:12px;font-family:Arial;-inkscape-font-specification:ArialMT;writing-mode:lr-tb;fill:#000000;fill-opacity:1;fill-rule:nonzero;stroke:none"
               id="text68"><tspan
                 x="0 6.6738281 12.673828 16.007812 25.341797 32.455078 40.458984 47.132812 53.806641"
                 y="0"
                 sodipodi:role="line"
                 id="tspan66">4x OPA197</tspan></text>
          </g>
          <g
             id="g70"
             transform="matrix(3.0013709,0,0,3.0013709,1.5006854,1.5006854)">
            <path
               d="m 335,210 h 90 c 0.98489,0 1.96036,0.0961 2.92633,0.28821 0.96597,0.19215 1.90393,0.47667 2.81387,0.85357 0.90995,0.37691 1.77436,0.83895 2.5933,1.38614 0.81894,0.5472 1.57663,1.16903 2.27307,1.86547 0.69644,0.69644 1.31823,1.45411 1.86541,2.27304 0.54719,0.81892 1.00925,1.68335 1.38617,2.59331 0.3769,0.90992 0.66141,1.8479 0.85358,2.81388 0.19217,0.96599 0.28824,1.94146 0.28827,2.92638 v 70 c -3e-5,0.98489 -0.0961,1.96036 -0.28827,2.92633 -0.19217,0.96597 -0.47671,1.90396 -0.85361,2.8139 -0.37692,0.90995 -0.83899,1.77439 -1.38614,2.5933 -0.54718,0.81894 -1.16897,1.57663 -1.86541,2.27307 -0.69644,0.69644 -1.45413,1.31824 -2.27304,1.86542 -0.81894,0.54721 -1.68338,1.00924 -2.59333,1.38616 -0.90994,0.37693 -1.8479,0.66144 -2.81387,0.85358 C 426.96036,309.90393 425.98489,310 425,310 h -90 c -0.98492,0 -1.96039,-0.0961 -2.92636,-0.28824 -0.966,-0.19214 -1.90399,-0.47665 -2.81394,-0.85358 -0.90994,-0.37692 -1.77438,-0.83895 -2.59329,-1.38616 -0.81894,-0.54718 -1.57663,-1.16898 -2.27304,-1.86542 -0.69644,-0.69644 -1.31827,-1.45413 -1.86545,-2.27307 -0.54718,-0.81891 -1.00921,-1.68335 -1.38614,-2.5933 -0.37692,-0.90994 -0.66143,-1.84793 -0.8536,-2.8139 C 320.09604,296.96036 319.99997,295.98489 320,295 v -70 c -3e-5,-0.98492 0.096,-1.96039 0.28818,-2.92639 0.19217,-0.96599 0.47668,-1.90396 0.8536,-2.81389 0.37693,-0.90994 0.83896,-1.77437 1.38614,-2.59329 0.54718,-0.81893 1.16901,-1.5766 1.86545,-2.27304 0.69641,-0.69644 1.4541,-1.31827 2.27304,-1.86547 0.81891,-0.54719 1.68335,-1.00923 2.59329,-1.38614 0.90995,-0.3769 1.84794,-0.66142 2.81394,-0.85356 C 333.03961,210.09607 334.01508,210 335,210 Z"
               style="fill:#ffffff;fill-opacity:1;fill-rule:nonzero;stroke:none"
               id="path72" />
            <path
               d="m 335,210 h 90 c 0.98489,0 1.96036,0.0961 2.92633,0.28821 0.96597,0.19215 1.90393,0.47667 2.81387,0.85357 0.90995,0.37691 1.77436,0.83895 2.5933,1.38614 0.81894,0.5472 1.57663,1.16903 2.27307,1.86547 0.69644,0.69644 1.31823,1.45411 1.86541,2.27304 0.54719,0.81892 1.00925,1.68335 1.38617,2.59331 0.3769,0.90992 0.66141,1.8479 0.85358,2.81388 0.19217,0.96599 0.28824,1.94146 0.28827,2.92638 v 70 c -3e-5,0.98489 -0.0961,1.96036 -0.28827,2.92633 -0.19217,0.96597 -0.47671,1.90396 -0.85361,2.8139 -0.37692,0.90995 -0.83899,1.77439 -1.38614,2.5933 -0.54718,0.81894 -1.16897,1.57663 -1.86541,2.27307 -0.69644,0.69644 -1.45413,1.31824 -2.27304,1.86542 -0.81894,0.54721 -1.68338,1.00924 -2.59333,1.38616 -0.90994,0.37693 -1.8479,0.66144 -2.81387,0.85358 C 426.96036,309.90393 425.98489,310 425,310 h -90 c -0.98492,0 -1.96039,-0.0961 -2.92636,-0.28824 -0.966,-0.19214 -1.90399,-0.47665 -2.81394,-0.85358 -0.90994,-0.37692 -1.77438,-0.83895 -2.59329,-1.38616 -0.81894,-0.54718 -1.57663,-1.16898 -2.27304,-1.86542 -0.69644,-0.69644 -1.31827,-1.45413 -1.86545,-2.27307 -0.54718,-0.81891 -1.00921,-1.68335 -1.38614,-2.5933 -0.37692,-0.90994 -0.66143,-1.84793 -0.8536,-2.8139 C 320.09604,296.96036 319.99997,295.98489 320,295 v -70 c -3e-5,-0.98492 0.096,-1.96039 0.28818,-2.92639 0.19217,-0.96599 0.47668,-1.90396 0.8536,-2.81389 0.37693,-0.90994 0.83896,-1.77437 1.38614,-2.59329 0.54718,-0.81893 1.16901,-1.5766 1.86545,-2.27304 0.69641,-0.69644 1.4541,-1.31827 2.27304,-1.86547 0.81891,-0.54719 1.68335,-1.00923 2.59329,-1.38614 0.90995,-0.3769 1.84794,-0.66142 2.81394,-0.85356 C 333.03961,210.09607 334.01508,210 335,210 Z"
               style="fill:none;stroke:#000000;stroke-width:1;stroke-linecap:butt;stroke-linejoin:miter;stroke-miterlimit:10;stroke-dasharray:none;stroke-opacity:1"
               id="path74" />
          </g>
          <g
             id="g76"
             transform="scale(3.0013709)">
            <text
               transform="translate(358.65625,258)"
               style="font-variant:normal;font-weight:normal;font-size:12px;font-family:Arial;-inkscape-font-specification:ArialMT;writing-mode:lr-tb;fill:#000000;fill-opacity:1;fill-rule:nonzero;stroke:none"
               id="text80"><tspan
                 x="0 8.6660156 16.669922 24.673828 27.339844 30.005859 36.679688"
                 y="0"
                 sodipodi:role="line"
                 id="tspan78">DSPlink</tspan></text>
            <text
               transform="translate(354.98438,272)"
               style="font-variant:normal;font-weight:normal;font-size:12px;font-family:Arial;-inkscape-font-specification:ArialMT;writing-mode:lr-tb;fill:#000000;fill-opacity:1;fill-rule:nonzero;stroke:none"
               id="text84"><tspan
                 x="0 7.3300781 14.660156 21.333984 28.007812 34.681641 43.347656"
                 y="0"
                 sodipodi:role="line"
                 id="tspan82">FT232RL</tspan></text>
          </g>
          <g
             id="g86"
             transform="matrix(0,-3.0013709,3.0013709,0,168.43692,1312.7396)">
            <path
               d="M 139.25999,149.38 H 353.25 c 0.81287,0 1.61792,0.0793 2.41516,0.23787 0.79727,0.15859 1.57141,0.39342 2.32242,0.7045 0.75101,0.31108 1.46445,0.69242 2.14035,1.14403 0.6759,0.45161 1.30127,0.96483 1.87607,1.53963 0.5748,0.5748 1.08798,1.20013 1.53958,1.87602 0.45163,0.67587 0.83295,1.38931 1.14401,2.14032 0.31107,0.75101 0.5459,1.52515 0.7045,2.32242 0.1586,0.79725 0.23788,1.60234 0.23791,2.41522 V 219.5 c -3e-5,0.81288 -0.0793,1.61795 -0.23788,2.41521 -0.1586,0.79725 -0.39346,1.57139 -0.70453,2.32238 -0.31106,0.751 -0.69238,1.46445 -1.14401,2.14035 -0.4516,0.67589 -0.96478,1.30123 -1.53958,1.87603 -0.5748,0.57478 -1.20017,1.08799 -1.87607,1.53961 -0.6759,0.45161 -1.38934,0.83295 -2.14035,1.14403 -0.75101,0.31108 -1.52512,0.54591 -2.32239,0.7045 -0.79727,0.15859 -1.60232,0.23789 -2.41519,0.23789 H 139.25999 c -0.81289,0 -1.61798,-0.0793 -2.41523,-0.23788 -0.79728,-0.1586 -1.57141,-0.39343 -2.32242,-0.70451 -0.75099,-0.31108 -1.46445,-0.69243 -2.14034,-1.14405 -0.67587,-0.45161 -1.30121,-0.96481 -1.87599,-1.53959 -0.5748,-0.5748 -1.08801,-1.20014 -1.53963,-1.87603 -0.45161,-0.6759 -0.83294,-1.38935 -1.14402,-2.14035 -0.31108,-0.75099 -0.54591,-1.52513 -0.70449,-2.32238 -0.15859,-0.79726 -0.23788,-1.60233 -0.23787,-2.41521 v -57.73999 c -10e-6,-0.81288 0.0793,-1.61797 0.23787,-2.41522 0.15858,-0.79727 0.39341,-1.57141 0.70448,-2.32242 0.31107,-0.75101 0.69242,-1.46445 1.14403,-2.14034 0.45162,-0.67587 0.96482,-1.3012 1.53962,-1.876 0.57478,-0.5748 1.20012,-1.08802 1.876,-1.53963 0.67589,-0.45161 1.38935,-0.83295 2.14035,-1.14403 0.75101,-0.31108 1.52515,-0.54591 2.32241,-0.7045 0.79725,-0.15858 1.60234,-0.23787 2.41523,-0.23787 z"
               style="fill:#ffffff;fill-opacity:1;fill-rule:nonzero;stroke:none"
               id="path88" />
            <path
               d="M 139.25999,149.38 H 353.25 c 0.81287,0 1.61792,0.0793 2.41516,0.23787 0.79727,0.15859 1.57141,0.39342 2.32242,0.7045 0.75101,0.31108 1.46445,0.69242 2.14035,1.14403 0.6759,0.45161 1.30127,0.96483 1.87607,1.53963 0.5748,0.5748 1.08798,1.20013 1.53958,1.87602 0.45163,0.67587 0.83295,1.38931 1.14401,2.14032 0.31107,0.75101 0.5459,1.52515 0.7045,2.32242 0.1586,0.79725 0.23788,1.60234 0.23791,2.41522 V 219.5 c -3e-5,0.81288 -0.0793,1.61795 -0.23788,2.41521 -0.1586,0.79725 -0.39346,1.57139 -0.70453,2.32238 -0.31106,0.751 -0.69238,1.46445 -1.14401,2.14035 -0.4516,0.67589 -0.96478,1.30123 -1.53958,1.87603 -0.5748,0.57478 -1.20017,1.08799 -1.87607,1.53961 -0.6759,0.45161 -1.38934,0.83295 -2.14035,1.14403 -0.75101,0.31108 -1.52512,0.54591 -2.32239,0.7045 -0.79727,0.15859 -1.60232,0.23789 -2.41519,0.23789 H 139.25999 c -0.81289,0 -1.61798,-0.0793 -2.41523,-0.23788 -0.79728,-0.1586 -1.57141,-0.39343 -2.32242,-0.70451 -0.75099,-0.31108 -1.46445,-0.69243 -2.14034,-1.14405 -0.67587,-0.45161 -1.30121,-0.96481 -1.87599,-1.53959 -0.5748,-0.5748 -1.08801,-1.20014 -1.53963,-1.87603 -0.45161,-0.6759 -0.83294,-1.38935 -1.14402,-2.14035 -0.31108,-0.75099 -0.54591,-1.52513 -0.70449,-2.32238 -0.15859,-0.79726 -0.23788,-1.60233 -0.23787,-2.41521 v -57.73999 c -10e-6,-0.81288 0.0793,-1.61797 0.23787,-2.41522 0.15858,-0.79727 0.39341,-1.57141 0.70448,-2.32242 0.31107,-0.75101 0.69242,-1.46445 1.14403,-2.14034 0.45162,-0.67587 0.96482,-1.3012 1.53962,-1.876 0.57478,-0.5748 1.20012,-1.08802 1.876,-1.53963 0.67589,-0.45161 1.38935,-0.83295 2.14035,-1.14403 0.75101,-0.31108 1.52515,-0.54591 2.32241,-0.7045 0.79725,-0.15858 1.60234,-0.23787 2.41523,-0.23787 z"
               style="fill:none;stroke:#000000;stroke-width:1;stroke-linecap:butt;stroke-linejoin:miter;stroke-miterlimit:10;stroke-dasharray:none;stroke-opacity:1"
               id="path90" />
          </g>
          <g
             id="g92"
             transform="matrix(0,-3.0013709,3.0013709,0,166.95126,1311.2539)">
            <text
               transform="translate(158.78125,189)"
               style="font-variant:normal;font-weight:normal;font-size:12px;font-family:Arial;-inkscape-font-specification:ArialMT;writing-mode:lr-tb;fill:#000000;fill-opacity:1;fill-rule:nonzero;stroke:none"
               id="text96"><tspan
                 x="0 3.3339844 12 20.666016 24.662109 31.335938 34.669922 43.335938 50.009766 56.683594 63.357422 70.03125 76.03125 79.365234 86.039062 90.035156 93.369141 96.703125 103.37695 106.71094 110.04492 116.71875 120.71484 127.38867 134.0625 137.39648 140.73047 147.4043 154.07812 160.07812 162.74414 168.74414"
                 y="0"
                 sodipodi:role="line"
                 id="tspan94">IDC-8 Connector to target device</tspan></text>
            <text
               transform="translate(170.125,203)"
               style="font-variant:normal;font-weight:normal;font-size:12px;font-family:Arial;-inkscape-font-specification:ArialMT;writing-mode:lr-tb;fill:#000000;fill-opacity:1;fill-rule:nonzero;stroke:none"
               id="text100"><tspan
                 x="0 3.9960938 10.669922 14.003906 20.677734 24.673828 31.347656 34.681641 41.355469 49.359375 52.693359 58.693359 65.367188 72.041016 78.714844 81.380859 87.380859 90.714844 94.048828 98.044922 104.71875 114.71484 118.04883 121.38281 128.05664 132.05273 138.72656 145.40039 148.73438"
                 y="0"
                 sodipodi:role="line"
                 id="tspan98">(2.3-5.5V supply from target)</tspan></text>
          </g>
          <g
             id="g102"
             transform="matrix(3.0013709,0,0,3.0013709,1.5006854,1.5006854)">
            <path
               d="m 287,139 26.87,0.19"
               style="fill:none;stroke:#000000;stroke-width:1;stroke-linecap:butt;stroke-linejoin:miter;stroke-miterlimit:10;stroke-dasharray:none;stroke-opacity:1"
               id="path104" />
            <path
               d="m 319.12,139.23 -7.01999,3.44999 1.76999,-3.48999 -1.72001,-3.51001 z"
               style="fill:#000000;fill-opacity:1;fill-rule:nonzero;stroke:none"
               id="path106" />
            <path
               d="m 319.12,139.23 -7.01999,3.44999 1.76999,-3.48999 -1.72001,-3.51001 z"
               style="fill:none;stroke:#000000;stroke-width:1;stroke-linecap:butt;stroke-linejoin:miter;stroke-miterlimit:10;stroke-dasharray:none;stroke-opacity:1"
               id="path108" />
            <path
               d="m 294.37,260 h 19.26"
               style="fill:none;stroke:#000000;stroke-width:1;stroke-linecap:butt;stroke-linejoin:miter;stroke-miterlimit:10;stroke-dasharray:none;stroke-opacity:1"
               id="path110" />
            <path
               d="m 289.12,260 7,-3.5 -1.75,3.5 1.75,3.5 z"
               style="fill:#000000;fill-opacity:1;fill-rule:nonzero;stroke:none"
               id="path112" />
            <path
               d="m 289.12,260 7,-3.5 -1.75,3.5 1.75,3.5 z"
               style="fill:none;stroke:#000000;stroke-width:1;stroke-linecap:butt;stroke-linejoin:miter;stroke-miterlimit:10;stroke-dasharray:none;stroke-opacity:1"
               id="path114" />
            <path
               d="m 318.88,260 -7,3.5 1.75,-3.5 -1.75,-3.5 z"
               style="fill:#000000;fill-opacity:1;fill-rule:nonzero;stroke:none"
               id="path116" />
            <path
               d="m 318.88,260 -7,3.5 1.75,-3.5 -1.75,-3.5 z"
               style="fill:none;stroke:#000000;stroke-width:1;stroke-linecap:butt;stroke-linejoin:miter;stroke-miterlimit:10;stroke-dasharray:none;stroke-opacity:1"
               id="path118" />
            <path
               d="m 525,60 h 70 c 0.98492,0 1.96039,0.09607 2.92639,0.288219 0.96601,0.192147 1.90393,0.476674 2.81384,0.853581 0.90992,0.376911 1.77436,0.838962 2.59333,1.38615 0.81891,0.547188 1.5766,1.169003 2.27307,1.865444 0.69641,0.696434 1.31817,1.454117 1.86535,2.273041 0.54719,0.818932 1.00928,1.683365 1.38617,2.593308 0.3769,0.909935 0.66144,1.8479 0.85358,2.813896 C 609.90393,73.039635 610,74.015083 610,75 v 100 c 0,0.98491 -0.0961,1.96034 -0.28827,2.92633 -0.19214,0.96597 -0.47668,1.90393 -0.85358,2.81389 -0.37689,0.90994 -0.83898,1.77438 -1.38617,2.59331 -0.54718,0.81892 -1.16894,1.57661 -1.86535,2.27305 -0.69647,0.69643 -1.45416,1.31824 -2.27307,1.86542 -0.81897,0.5472 -1.68341,1.00925 -2.59333,1.38617 -0.90991,0.37691 -1.84783,0.66145 -2.81384,0.85361 -0.966,0.19214 -1.94147,0.2882 -2.92639,0.28822 h -70 c -0.98492,-2e-5 -1.96039,-0.0961 -2.92639,-0.28824 -0.96601,-0.19215 -1.90393,-0.47668 -2.81391,-0.85359 -0.90997,-0.37692 -1.77441,-0.83897 -2.59332,-1.38617 -0.81891,-0.54718 -1.5766,-1.16899 -2.27301,-1.86542 -0.69647,-0.69644 -1.3183,-1.45411 -1.86548,-2.27304 -0.54721,-0.81894 -1.00924,-1.68338 -1.38614,-2.59332 -0.37692,-0.90996 -0.66143,-1.84792 -0.85354,-2.81389 C 510.09604,176.96034 509.99997,175.98491 510,175 V 75 c -3e-5,-0.984917 0.096,-1.960365 0.28818,-2.926361 0.19214,-0.965996 0.47665,-1.903961 0.85357,-2.813896 0.3769,-0.909943 0.83893,-1.774376 1.38608,-2.5933 0.54724,-0.818932 1.16907,-1.576615 1.86554,-2.273049 0.69641,-0.696441 1.4541,-1.318256 2.27307,-1.865444 0.81891,-0.547188 1.68329,-1.009239 2.59326,-1.38615 0.90998,-0.376907 1.8479,-0.661434 2.81391,-0.853584 C 523.03961,60.096073 524.01508,60 525,60 Z"
               style="fill:#ffffff;fill-opacity:1;fill-rule:nonzero;stroke:none"
               id="path120" />
            <path
               d="m 525,60 h 70 c 0.98492,0 1.96039,0.09607 2.92639,0.288219 0.96601,0.192147 1.90393,0.476674 2.81384,0.853581 0.90992,0.376911 1.77436,0.838962 2.59333,1.38615 0.81891,0.547188 1.5766,1.169003 2.27307,1.865444 0.69641,0.696434 1.31817,1.454117 1.86535,2.273041 0.54719,0.818932 1.00928,1.683365 1.38617,2.593308 0.3769,0.909935 0.66144,1.8479 0.85358,2.813896 C 609.90393,73.039635 610,74.015083 610,75 v 100 c 0,0.98491 -0.0961,1.96034 -0.28827,2.92633 -0.19214,0.96597 -0.47668,1.90393 -0.85358,2.81389 -0.37689,0.90994 -0.83898,1.77438 -1.38617,2.59331 -0.54718,0.81892 -1.16894,1.57661 -1.86535,2.27305 -0.69647,0.69643 -1.45416,1.31824 -2.27307,1.86542 -0.81897,0.5472 -1.68341,1.00925 -2.59333,1.38617 -0.90991,0.37691 -1.84783,0.66145 -2.81384,0.85361 -0.966,0.19214 -1.94147,0.2882 -2.92639,0.28822 h -70 c -0.98492,-2e-5 -1.96039,-0.0961 -2.92639,-0.28824 -0.96601,-0.19215 -1.90393,-0.47668 -2.81391,-0.85359 -0.90997,-0.37692 -1.77441,-0.83897 -2.59332,-1.38617 -0.81891,-0.54718 -1.5766,-1.16899 -2.27301,-1.86542 -0.69647,-0.69644 -1.3183,-1.45411 -1.86548,-2.27304 -0.54721,-0.81894 -1.00924,-1.68338 -1.38614,-2.59332 -0.37692,-0.90996 -0.66143,-1.84792 -0.85354,-2.81389 C 510.09604,176.96034 509.99997,175.98491 510,175 V 75 c -3e-5,-0.984917 0.096,-1.960365 0.28818,-2.926361 0.19214,-0.965996 0.47665,-1.903961 0.85357,-2.813896 0.3769,-0.909943 0.83893,-1.774376 1.38608,-2.5933 0.54724,-0.818932 1.16907,-1.576615 1.86554,-2.273049 0.69641,-0.696441 1.4541,-1.318256 2.27307,-1.865444 0.81891,-0.547188 1.68329,-1.009239 2.59326,-1.38615 0.90998,-0.376907 1.8479,-0.661434 2.81391,-0.853584 C 523.03961,60.096073 524.01508,60 525,60 Z"
               style="fill:none;stroke:#000000;stroke-width:1;stroke-linecap:butt;stroke-linejoin:miter;stroke-miterlimit:10;stroke-dasharray:none;stroke-opacity:1"
               id="path122" />
          </g>
          <g
             id="g124"
             transform="scale(3.0013709)">
            <text
               transform="translate(546.32813,123)"
               style="font-variant:normal;font-weight:normal;font-size:12px;font-family:Arial;-inkscape-font-specification:ArialMT;writing-mode:lr-tb;fill:#000000;fill-opacity:1;fill-rule:nonzero;stroke:none"
               id="text128"><tspan
                 x="0 6.6738281 15.339844 24.005859"
                 y="0"
                 sodipodi:role="line"
                 id="tspan126">4CH</tspan></text>
            <text
               transform="translate(527.3125,137)"
               style="font-variant:normal;font-weight:normal;font-size:12px;font-family:Arial;-inkscape-font-specification:ArialMT;writing-mode:lr-tb;fill:#000000;fill-opacity:1;fill-rule:nonzero;stroke:none"
               id="text132"><tspan
                 x="0 6.6738281 12.673828 18.673828 21.339844 24.005859 26.671875 33.345703 39.345703 45.345703 52.019531 58.693359"
                 y="0"
                 sodipodi:role="line"
                 id="tspan130">oscilloscope</tspan></text>
          </g>
          <g
             id="g134"
             transform="matrix(3.0013709,0,0,3.0013709,1.5006854,1.5006854)">
            <path
               d="m 525,210 h 70 c 0.98492,0 1.96039,0.0961 2.92639,0.28821 0.96601,0.19215 1.90393,0.47667 2.81384,0.85357 0.90992,0.37691 1.77436,0.83895 2.59333,1.38614 0.81891,0.5472 1.5766,1.16903 2.27307,1.86547 0.69641,0.69644 1.31817,1.45411 1.86535,2.27304 0.54719,0.81892 1.00928,1.68335 1.38617,2.59331 0.3769,0.90992 0.66144,1.8479 0.85358,2.81388 C 609.90393,223.03961 610,224.01508 610,225 v 70 c 0,0.98489 -0.0961,1.96036 -0.28827,2.92633 -0.19214,0.96597 -0.47668,1.90396 -0.85358,2.8139 -0.37689,0.90995 -0.83898,1.77439 -1.38617,2.5933 -0.54718,0.81894 -1.16894,1.57663 -1.86535,2.27307 -0.69647,0.69644 -1.45416,1.31824 -2.27307,1.86542 -0.81897,0.54721 -1.68341,1.00924 -2.59333,1.38616 -0.90991,0.37693 -1.84783,0.66144 -2.81384,0.85358 C 596.96039,309.90393 595.98492,310 595,310 h -70 c -0.98492,0 -1.96039,-0.0961 -2.92639,-0.28824 -0.96601,-0.19214 -1.90393,-0.47665 -2.81391,-0.85358 -0.90997,-0.37692 -1.77441,-0.83895 -2.59332,-1.38616 -0.81891,-0.54718 -1.5766,-1.16898 -2.27301,-1.86542 -0.69647,-0.69644 -1.3183,-1.45413 -1.86548,-2.27307 -0.54721,-0.81891 -1.00924,-1.68335 -1.38614,-2.5933 -0.37692,-0.90994 -0.66143,-1.84793 -0.85354,-2.8139 C 510.09604,296.96036 509.99997,295.98489 510,295 v -70 c -3e-5,-0.98492 0.096,-1.96039 0.28818,-2.92639 0.19214,-0.96599 0.47665,-1.90396 0.85357,-2.81389 0.3769,-0.90994 0.83893,-1.77437 1.38608,-2.59329 0.54724,-0.81893 1.16907,-1.5766 1.86554,-2.27304 0.69641,-0.69644 1.4541,-1.31827 2.27307,-1.86547 0.81891,-0.54719 1.68329,-1.00923 2.59326,-1.38614 0.90998,-0.3769 1.8479,-0.66142 2.81391,-0.85356 C 523.03961,210.09607 524.01508,210 525,210 Z"
               style="fill:#ffffff;fill-opacity:1;fill-rule:nonzero;stroke:none"
               id="path136" />
            <path
               d="m 525,210 h 70 c 0.98492,0 1.96039,0.0961 2.92639,0.28821 0.96601,0.19215 1.90393,0.47667 2.81384,0.85357 0.90992,0.37691 1.77436,0.83895 2.59333,1.38614 0.81891,0.5472 1.5766,1.16903 2.27307,1.86547 0.69641,0.69644 1.31817,1.45411 1.86535,2.27304 0.54719,0.81892 1.00928,1.68335 1.38617,2.59331 0.3769,0.90992 0.66144,1.8479 0.85358,2.81388 C 609.90393,223.03961 610,224.01508 610,225 v 70 c 0,0.98489 -0.0961,1.96036 -0.28827,2.92633 -0.19214,0.96597 -0.47668,1.90396 -0.85358,2.8139 -0.37689,0.90995 -0.83898,1.77439 -1.38617,2.5933 -0.54718,0.81894 -1.16894,1.57663 -1.86535,2.27307 -0.69647,0.69644 -1.45416,1.31824 -2.27307,1.86542 -0.81897,0.54721 -1.68341,1.00924 -2.59333,1.38616 -0.90991,0.37693 -1.84783,0.66144 -2.81384,0.85358 C 596.96039,309.90393 595.98492,310 595,310 h -70 c -0.98492,0 -1.96039,-0.0961 -2.92639,-0.28824 -0.96601,-0.19214 -1.90393,-0.47665 -2.81391,-0.85358 -0.90997,-0.37692 -1.77441,-0.83895 -2.59332,-1.38616 -0.81891,-0.54718 -1.5766,-1.16898 -2.27301,-1.86542 -0.69647,-0.69644 -1.3183,-1.45413 -1.86548,-2.27307 -0.54721,-0.81891 -1.00924,-1.68335 -1.38614,-2.5933 -0.37692,-0.90994 -0.66143,-1.84793 -0.85354,-2.8139 C 510.09604,296.96036 509.99997,295.98489 510,295 v -70 c -3e-5,-0.98492 0.096,-1.96039 0.28818,-2.92639 0.19214,-0.96599 0.47665,-1.90396 0.85357,-2.81389 0.3769,-0.90994 0.83893,-1.77437 1.38608,-2.59329 0.54724,-0.81893 1.16907,-1.5766 1.86554,-2.27304 0.69641,-0.69644 1.4541,-1.31827 2.27307,-1.86547 0.81891,-0.54719 1.68329,-1.00923 2.59326,-1.38614 0.90998,-0.3769 1.8479,-0.66142 2.81391,-0.85356 C 523.03961,210.09607 524.01508,210 525,210 Z"
               style="fill:none;stroke:#000000;stroke-width:1;stroke-linecap:butt;stroke-linejoin:miter;stroke-miterlimit:10;stroke-dasharray:none;stroke-opacity:1"
               id="path138" />
          </g>
          <g
             id="g140"
             transform="scale(3.0013709)">
            <text
               transform="translate(551.65625,265)"
               style="font-variant:normal;font-weight:normal;font-size:12px;font-family:Arial;-inkscape-font-specification:ArialMT;writing-mode:lr-tb;fill:#000000;fill-opacity:1;fill-rule:nonzero;stroke:none"
               id="text144"><tspan
                 x="0 8.0039062"
                 y="0"
                 sodipodi:role="line"
                 id="tspan142">PC</tspan></text>
          </g>
          <g
             id="g146"
             transform="matrix(3.0013709,0,0,3.0013709,1.5006854,1.5006854)">
            <path
               d="m 440,160.39999 64.63,-0.36"
               style="fill:none;stroke:#000000;stroke-width:1;stroke-linecap:butt;stroke-linejoin:miter;stroke-miterlimit:10;stroke-dasharray:none;stroke-opacity:1"
               id="path148" />
            <path
               d="M 509.88,160.00999 502.89999,163.55 504.63,160.03999 502.85999,156.55 Z"
               style="fill:#000000;fill-opacity:1;fill-rule:nonzero;stroke:none"
               id="path150" />
            <path
               d="M 509.88,160.00999 502.89999,163.55 504.63,160.03999 502.85999,156.55 Z"
               style="fill:none;stroke:#000000;stroke-width:1;stroke-linecap:butt;stroke-linejoin:miter;stroke-miterlimit:10;stroke-dasharray:none;stroke-opacity:1"
               id="path152" />
            <path
               d="m 440,120.4 64.63,-0.36"
               style="fill:none;stroke:#000000;stroke-width:1;stroke-linecap:butt;stroke-linejoin:miter;stroke-miterlimit:10;stroke-dasharray:none;stroke-opacity:1"
               id="path154" />
            <path
               d="m 509.88,120.01 -6.98001,3.54 1.73001,-3.51 -1.77001,-3.49 z"
               style="fill:#000000;fill-opacity:1;fill-rule:nonzero;stroke:none"
               id="path156" />
            <path
               d="m 509.88,120.01 -6.98001,3.54 1.73001,-3.51 -1.77001,-3.49 z"
               style="fill:none;stroke:#000000;stroke-width:1;stroke-linecap:butt;stroke-linejoin:miter;stroke-miterlimit:10;stroke-dasharray:none;stroke-opacity:1"
               id="path158" />
            <path
               d="m 440,100.4 64.63,-0.36"
               style="fill:none;stroke:#000000;stroke-width:1;stroke-linecap:butt;stroke-linejoin:miter;stroke-miterlimit:10;stroke-dasharray:none;stroke-opacity:1"
               id="path160" />
            <path
               d="m 509.88,100.01 -6.98001,3.54 1.73001,-3.51 -1.77001,-3.489997 z"
               style="fill:#000000;fill-opacity:1;fill-rule:nonzero;stroke:none"
               id="path162" />
            <path
               d="m 509.88,100.01 -6.98001,3.54 1.73001,-3.51 -1.77001,-3.489997 z"
               style="fill:none;stroke:#000000;stroke-width:1;stroke-linecap:butt;stroke-linejoin:miter;stroke-miterlimit:10;stroke-dasharray:none;stroke-opacity:1"
               id="path164" />
            <path
               d="m 440,140.39999 64.63,-0.36"
               style="fill:none;stroke:#000000;stroke-width:1;stroke-linecap:butt;stroke-linejoin:miter;stroke-miterlimit:10;stroke-dasharray:none;stroke-opacity:1"
               id="path166" />
            <path
               d="M 509.88,140.00999 502.89999,143.55 504.63,140.03999 502.85999,136.55 Z"
               style="fill:#000000;fill-opacity:1;fill-rule:nonzero;stroke:none"
               id="path168" />
            <path
               d="M 509.88,140.00999 502.89999,143.55 504.63,140.03999 502.85999,136.55 Z"
               style="fill:none;stroke:#000000;stroke-width:1;stroke-linecap:butt;stroke-linejoin:miter;stroke-miterlimit:10;stroke-dasharray:none;stroke-opacity:1"
               id="path170" />
            <path
               d="m 446.37,260 h 57.26"
               style="fill:none;stroke:#000000;stroke-width:1;stroke-linecap:butt;stroke-linejoin:miter;stroke-miterlimit:10;stroke-dasharray:none;stroke-opacity:1"
               id="path172" />
            <path
               d="m 441.12,260 7,-3.5 -1.75,3.5 1.75,3.5 z"
               style="fill:#000000;fill-opacity:1;fill-rule:nonzero;stroke:none"
               id="path174" />
            <path
               d="m 441.12,260 7,-3.5 -1.75,3.5 1.75,3.5 z"
               style="fill:none;stroke:#000000;stroke-width:1;stroke-linecap:butt;stroke-linejoin:miter;stroke-miterlimit:10;stroke-dasharray:none;stroke-opacity:1"
               id="path176" />
            <path
               d="m 508.88,260 -7,3.5 1.75,-3.5 -1.75,-3.5 z"
               style="fill:#000000;fill-opacity:1;fill-rule:nonzero;stroke:none"
               id="path178" />
            <path
               d="m 508.88,260 -7,3.5 1.75,-3.5 -1.75,-3.5 z"
               style="fill:none;stroke:#000000;stroke-width:1;stroke-linecap:butt;stroke-linejoin:miter;stroke-miterlimit:10;stroke-dasharray:none;stroke-opacity:1"
               id="path180" />
          </g>
          <g
             id="g182"
             transform="scale(3.0013709)">
            <path
               d="m 299,320 v -2 h 2 v 2 m -2,-8 v -2 h 2 v 2 m -2,-8 v -2 h 2 v 2 m -2,-8 v -2 h 2 v 2 m -2,-8 v -2 h 2 v 2 m -2,-8 v -2 h 2 v 2 m -2,-8 v -2 h 2 v 2 m -2,-8 v -2 h 2 v 2 m -2,-8 v -2 h 2 v 2 m -2,-8 v -2 h 2 v 2 m -2,-8 v -2 h 2 v 2 m -2,-8 v -2 h 2 v 2 m -2,-8 v -2 h 2 v 2 m -2,-8 v -2 h 2 v 2 m -2,-8 v -2 h 2 v 2 m -2,-8 v -2 h 2 v 2 m -2,-8 v -2 h 2 v 2 m -2,-8 v -2 h 2 v 2 m -2,-8 v -2 h 2 v 2 m -2,-8 v -2 h 2 v 2 m -2,-8 v -2 h 2 v 2 m -2,-8 v -2 h 2 v 2 m -2,-8 v -2 h 2 v 2 m -2,-8 v -2 h 2 v 2 m -2,-8 v -2 h 2 v 2 m -2,-8 v -2 h 2 v 2 m -2,-8 v -2 h 2 v 2 m -2,-8 v -2 h 2 v 2 m -2,-8 v -2 h 2 v 2 m -2,-8 v -2 h 2 v 2 m -2,-8 v -2 h 2 v 2 m -2,-8 v -2 h 2 v 2 m -2,-8 v -2 h 2 v 2"
               style="fill:#000000;fill-opacity:1;fill-rule:nonzero;stroke:none"
               id="path184" />
          </g>
          <g
             id="g186"
             transform="matrix(0,-3.0013709,3.0013709,0,319.01569,1484.8082)">
            <path
               d="m 253,188 h 98 v 13 h -98 z"
               style="fill:#ffffff;fill-opacity:1;fill-rule:nonzero;stroke:none"
               id="path188" />
            <text
               transform="translate(255.55615,198)"
               style="font-variant:normal;font-weight:normal;font-size:11px;font-family:Arial;-inkscape-font-specification:ArialMT;writing-mode:lr-tb;fill:#000000;fill-opacity:1;fill-rule:nonzero;stroke:none"
               id="text192"><tspan
                 x="0 6.1176758 11.617676 18.546387 22.209473 31.372559 36.872559 39.928711 42.372559 47.872559 53.990234 57.046387 60.102539 66.220215 72.337891 76.000977 79.664062 82.10791 88.225586 91.888672"
                 y="0"
                 sodipodi:role="line"
                 id="tspan190">8kVrms iso. barrier</tspan></text>
          </g>
          <g
             id="g194"
             transform="matrix(3.0013709,0,0,3.0013709,1.5006854,1.5006854)">
            <path
               d="M 41.879997,140.63 H 111.88 c 0.98491,0 1.96036,0.0961 2.92634,0.28823 0.96598,0.19214 1.90395,0.47667 2.81389,0.85357 0.90994,0.37691 1.77438,0.83895 2.59331,1.38614 0.81892,0.5472 1.57661,1.16901 2.27305,1.86545 0.69643,0.69644 1.31825,1.45412 1.86544,2.27304 0.54719,0.81893 1.00923,1.68337 1.38614,2.59329 0.37692,0.90995 0.66145,1.84792 0.8536,2.81391 0.19215,0.966 0.28822,1.94147 0.28823,2.92637 v 70 c -10e-6,0.98491 -0.0961,1.96035 -0.28823,2.92634 -0.19215,0.96597 -0.47668,1.90393 -0.8536,2.81388 -0.37691,0.90995 -0.83895,1.77439 -1.38614,2.59331 -0.54719,0.81894 -1.16901,1.57663 -1.86544,2.27307 -0.69644,0.69644 -1.45413,1.31826 -2.27305,1.86544 -0.81893,0.54719 -1.68337,1.00924 -2.5933,1.38615 -0.90994,0.37691 -1.84791,0.66144 -2.8139,0.85359 -0.96598,0.19214 -1.94143,0.28821 -2.92634,0.28822 H 41.879997 c -0.984913,-1e-5 -1.960365,-0.0961 -2.926357,-0.28823 -0.965992,-0.19214 -1.903957,-0.47667 -2.8139,-0.85358 -0.909939,-0.37691 -1.774372,-0.83896 -2.5933,-1.38615 -0.818928,-0.54718 -1.576609,-1.169 -2.273044,-1.86544 -0.69644,-0.69644 -1.318255,-1.45413 -1.865445,-2.27305 -0.547189,-0.81894 -1.009239,-1.68338 -1.38615,-2.59333 -0.376909,-0.90995 -0.661438,-1.84791 -0.853584,-2.81388 -0.192147,-0.96599 -0.28822,-1.94143 -0.288218,-2.92634 v -70 c -2e-6,-0.9849 0.09607,-1.96037 0.28822,-2.92637 0.192144,-0.96599 0.476673,-1.90396 0.853582,-2.81391 0.376911,-0.90992 0.838961,-1.77436 1.38615,-2.59329 0.54719,-0.81892 1.169005,-1.5766 1.865445,-2.27304 0.696435,-0.69644 1.454116,-1.31825 2.273044,-1.86545 0.818928,-0.54719 1.683361,-1.00923 2.593304,-1.38614 0.909942,-0.3769 1.847908,-0.66143 2.813896,-0.85357 0.965992,-0.19216 1.941444,-0.28823 2.926357,-0.28823 z"
               style="fill:#ffffff;fill-opacity:1;fill-rule:nonzero;stroke:none"
               id="path196" />
            <path
               d="M 41.879997,140.63 H 111.88 c 0.98491,0 1.96036,0.0961 2.92634,0.28823 0.96598,0.19214 1.90395,0.47667 2.81389,0.85357 0.90994,0.37691 1.77438,0.83895 2.59331,1.38614 0.81892,0.5472 1.57661,1.16901 2.27305,1.86545 0.69643,0.69644 1.31825,1.45412 1.86544,2.27304 0.54719,0.81893 1.00923,1.68337 1.38614,2.59329 0.37692,0.90995 0.66145,1.84792 0.8536,2.81391 0.19215,0.966 0.28822,1.94147 0.28823,2.92637 v 70 c -10e-6,0.98491 -0.0961,1.96035 -0.28823,2.92634 -0.19215,0.96597 -0.47668,1.90393 -0.8536,2.81388 -0.37691,0.90995 -0.83895,1.77439 -1.38614,2.59331 -0.54719,0.81894 -1.16901,1.57663 -1.86544,2.27307 -0.69644,0.69644 -1.45413,1.31826 -2.27305,1.86544 -0.81893,0.54719 -1.68337,1.00924 -2.5933,1.38615 -0.90994,0.37691 -1.84791,0.66144 -2.8139,0.85359 -0.96598,0.19214 -1.94143,0.28821 -2.92634,0.28822 H 41.879997 c -0.984913,-1e-5 -1.960365,-0.0961 -2.926357,-0.28823 -0.965992,-0.19214 -1.903957,-0.47667 -2.8139,-0.85358 -0.909939,-0.37691 -1.774372,-0.83896 -2.5933,-1.38615 -0.818928,-0.54718 -1.576609,-1.169 -2.273044,-1.86544 -0.69644,-0.69644 -1.318255,-1.45413 -1.865445,-2.27305 -0.547189,-0.81894 -1.009239,-1.68338 -1.38615,-2.59333 -0.376909,-0.90995 -0.661438,-1.84791 -0.853584,-2.81388 -0.192147,-0.96599 -0.28822,-1.94143 -0.288218,-2.92634 v -70 c -2e-6,-0.9849 0.09607,-1.96037 0.28822,-2.92637 0.192144,-0.96599 0.476673,-1.90396 0.853582,-2.81391 0.376911,-0.90992 0.838961,-1.77436 1.38615,-2.59329 0.54719,-0.81892 1.169005,-1.5766 1.865445,-2.27304 0.696435,-0.69644 1.454116,-1.31825 2.273044,-1.86545 0.818928,-0.54719 1.683361,-1.00923 2.593304,-1.38614 0.909942,-0.3769 1.847908,-0.66143 2.813896,-0.85357 0.965992,-0.19216 1.941444,-0.28823 2.926357,-0.28823 z"
               style="fill:none;stroke:#000000;stroke-width:1;stroke-linecap:butt;stroke-linejoin:miter;stroke-miterlimit:10;stroke-dasharray:none;stroke-opacity:1"
               id="path198" />
          </g>
          <g
             id="g200"
             transform="scale(3.0013709)">
            <text
               transform="translate(60.3125,189)"
               style="font-variant:normal;font-weight:normal;font-size:12px;font-family:Arial;-inkscape-font-specification:ArialMT;writing-mode:lr-tb;fill:#000000;fill-opacity:1;fill-rule:nonzero;stroke:none"
               id="text204"><tspan
                 x="0 6 12.673828 16.669922 23.34375 30.017578"
                 y="0"
                 sodipodi:role="line"
                 id="tspan202">Target</tspan></text>
            <text
               transform="translate(44.09375,203)"
               style="font-variant:normal;font-weight:normal;font-size:12px;font-family:Arial;-inkscape-font-specification:ArialMT;writing-mode:lr-tb;fill:#000000;fill-opacity:1;fill-rule:nonzero;stroke:none"
               id="text208"><tspan
                 x="0 8.6660156 16.669922 23.126953 26.460938 36.457031 39.123047 45.123047 49.119141 55.792969 59.126953 62.460938"
                 y="0"
                 sodipodi:role="line"
                 id="tspan206">DSP,Micro...</tspan></text>
          </g>
          <g
             id="g210"
             transform="matrix(3.0013709,0,0,3.0013709,1.5006854,1.5006854)">
            <path
               d="m 133.25,190.63 h 65.39"
               style="fill:none;stroke:#000000;stroke-width:1;stroke-linecap:butt;stroke-linejoin:miter;stroke-miterlimit:10;stroke-dasharray:none;stroke-opacity:1"
               id="path212" />
            <path
               d="m 128,190.63 7,-3.5 -1.75,3.5 1.75,3.5 z"
               style="fill:#000000;fill-opacity:1;fill-rule:nonzero;stroke:none"
               id="path214" />
            <path
               d="m 128,190.63 7,-3.5 -1.75,3.5 1.75,3.5 z"
               style="fill:none;stroke:#000000;stroke-width:1;stroke-linecap:butt;stroke-linejoin:miter;stroke-miterlimit:10;stroke-dasharray:none;stroke-opacity:1"
               id="path216" />
            <path
               d="m 203.89,190.63 -7,3.5 1.75,-3.5 -1.75,-3.5 z"
               style="fill:#000000;fill-opacity:1;fill-rule:nonzero;stroke:none"
               id="path218" />
            <path
               d="m 203.89,190.63 -7,3.5 1.75,-3.5 -1.75,-3.5 z"
               style="fill:none;stroke:#000000;stroke-width:1;stroke-linecap:butt;stroke-linejoin:miter;stroke-miterlimit:10;stroke-dasharray:none;stroke-opacity:1"
               id="path220" />
          </g>
          <g
             id="g222"
             transform="scale(3.0013709)">
            <path
               d="m 310,199 h 2 v 2 h -2 m 8,-2 h 2 v 2 h -2 m 8,-2 h 2 v 2 h -2 m 8,-2 h 2 v 2 h -2 m 8,-2 h 2 v 2 h -2 m 8,-2 h 2 v 2 h -2 m 8,-2 h 2 v 2 h -2 m 8,-2 h 2 v 2 h -2 m 8,-2 h 2 v 2 h -2 m 8,-2 h 2 v 2 h -2 m 8,-2 h 2 v 2 h -2 m 8,-2 h 2 v 2 h -2 m 8,-2 h 2 v 2 h -2 m 8,-2 h 2 v 2 h -2 m 8,-2 h 2 v 2 h -2 m 8,-2 h 2 v 2 h -2 m 8,-2 h 2 v 2 h -2 m 8,-2 h 2 v 2 h -2"
               style="fill:#000000;fill-opacity:1;fill-rule:nonzero;stroke:none"
               id="path224" />
            <path
               d="m 353,195 h 76 v 13 h -76 z"
               style="fill:#ffffff;fill-opacity:1;fill-rule:nonzero;stroke:none"
               id="path226" />
            <text
               transform="translate(352.5,205)"
               style="font-variant:normal;font-weight:normal;font-size:11px;font-family:Arial;-inkscape-font-specification:ArialMT;writing-mode:lr-tb;fill:#000000;fill-opacity:1;fill-rule:nonzero;stroke:none"
               id="text230"><tspan
                 x="0 6.1176758 12.235352 18.353027 25.281738 28.944824 38.10791 43.60791 46.664062 49.10791 54.60791 60.725586 63.781738 66.837891 72.955566"
                 y="0"
                 sodipodi:role="line"
                 id="tspan228">500Vrms iso. b.</tspan></text>
            <text
               transform="translate(208.53125,36)"
               style="font-variant:normal;font-weight:bold;font-size:14px;font-family:Arial;-inkscape-font-specification:Arial-BoldMT;writing-mode:lr-tb;fill:#000000;fill-opacity:1;fill-rule:nonzero;stroke:none"
               id="text234"><tspan
                 x="0 10.110352 17.896484 26.448242 35 43.551758 47.441406 54.954102 63.505859 72.057617"
                 y="0"
                 sodipodi:role="line"
                 id="tspan232">Debug Tool</tspan></text>
          </g>
          <g
             id="g236"
             transform="matrix(3.0013709,0,0,3.0013709,1.5006854,1.5006854)">
            <path
               d="m 338,70 h 84 c 1.18185,0 2.35239,0.115288 3.51157,0.345863 1.15921,0.230576 2.28476,0.572007 3.37667,1.0243 1.09192,0.452286 2.12925,1.006744 3.11194,1.663376 0.98273,0.656624 1.89197,1.402801 2.72769,2.238533 0.83573,0.835724 1.58191,1.744942 2.23853,2.727646 0.65662,0.982712 1.21106,2.020035 1.66336,3.111961 0.4523,1.091934 0.79373,2.217491 1.02432,3.376679 C 439.88467,85.647552 439.99997,86.8181 440,88 v 84 c -3e-5,1.18188 -0.11533,2.35242 -0.34592,3.51161 -0.23059,1.1592 -0.57202,2.28475 -1.02432,3.37667 -0.4523,1.09193 -1.00674,2.12925 -1.66333,3.11196 -0.65665,0.98272 -1.40283,1.89193 -2.23856,2.72767 -0.83572,0.83572 -1.74496,1.58189 -2.72766,2.23852 -0.98272,0.65663 -2.02005,1.21109 -3.11197,1.66338 -1.09191,0.4523 -2.21746,0.79373 -3.37664,1.0243 -1.15921,0.23058 -2.32975,0.34587 -3.5116,0.34589 h -84 c -1.18192,-2e-5 -2.35248,-0.11531 -3.51169,-0.34589 -1.15918,-0.23057 -2.28473,-0.572 -3.37665,-1.0243 -1.09192,-0.45229 -2.12924,-1.00675 -3.11193,-1.66338 -0.9827,-0.65663 -1.89194,-1.4028 -2.72767,-2.23852 -0.83575,-0.83574 -1.58194,-1.74495 -2.23858,-2.72767 -0.65662,-0.98271 -1.21106,-2.02003 -1.66336,-3.11196 -0.4523,-1.09192 -0.79373,-2.21747 -1.02429,-3.37667 C 320.11526,174.35242 319.99997,173.18188 320,172 V 88 c -3e-5,-1.1819 0.11526,-2.352448 0.34583,-3.511642 0.23056,-1.159188 0.57199,-2.284745 1.02429,-3.376679 0.4523,-1.091926 1.00674,-2.129249 1.66336,-3.111961 0.65664,-0.982704 1.40283,-1.891922 2.23858,-2.727646 0.83573,-0.835732 1.74497,-1.581909 2.72767,-2.238533 0.98269,-0.656632 2.02001,-1.21109 3.11193,-1.663376 1.09192,-0.452293 2.21747,-0.793724 3.37665,-1.0243 C 335.64752,70.115288 336.81808,70 338,70 Z"
               style="fill:#ffffff;fill-opacity:1;fill-rule:nonzero;stroke:none"
               id="path238" />
            <path
               d="m 338,70 h 84 c 1.18185,0 2.35239,0.115288 3.51157,0.345863 1.15921,0.230576 2.28476,0.572007 3.37667,1.0243 1.09192,0.452286 2.12925,1.006744 3.11194,1.663376 0.98273,0.656624 1.89197,1.402801 2.72769,2.238533 0.83573,0.835724 1.58191,1.744942 2.23853,2.727646 0.65662,0.982712 1.21106,2.020035 1.66336,3.111961 0.4523,1.091934 0.79373,2.217491 1.02432,3.376679 C 439.88467,85.647552 439.99997,86.8181 440,88 v 84 c -3e-5,1.18188 -0.11533,2.35242 -0.34592,3.51161 -0.23059,1.1592 -0.57202,2.28475 -1.02432,3.37667 -0.4523,1.09193 -1.00674,2.12925 -1.66333,3.11196 -0.65665,0.98272 -1.40283,1.89193 -2.23856,2.72767 -0.83572,0.83572 -1.74496,1.58189 -2.72766,2.23852 -0.98272,0.65663 -2.02005,1.21109 -3.11197,1.66338 -1.09191,0.4523 -2.21746,0.79373 -3.37664,1.0243 -1.15921,0.23058 -2.32975,0.34587 -3.5116,0.34589 h -84 c -1.18192,-2e-5 -2.35248,-0.11531 -3.51169,-0.34589 -1.15918,-0.23057 -2.28473,-0.572 -3.37665,-1.0243 -1.09192,-0.45229 -2.12924,-1.00675 -3.11193,-1.66338 -0.9827,-0.65663 -1.89194,-1.4028 -2.72767,-2.23852 -0.83575,-0.83574 -1.58194,-1.74495 -2.23858,-2.72767 -0.65662,-0.98271 -1.21106,-2.02003 -1.66336,-3.11196 -0.4523,-1.09192 -0.79373,-2.21747 -1.02429,-3.37667 C 320.11526,174.35242 319.99997,173.18188 320,172 V 88 c -3e-5,-1.1819 0.11526,-2.352448 0.34583,-3.511642 0.23056,-1.159188 0.57199,-2.284745 1.02429,-3.376679 0.4523,-1.091926 1.00674,-2.129249 1.66336,-3.111961 0.65664,-0.982704 1.40283,-1.891922 2.23858,-2.727646 0.83573,-0.835732 1.74497,-1.581909 2.72767,-2.238533 0.98269,-0.656632 2.02001,-1.21109 3.11193,-1.663376 1.09192,-0.452293 2.21747,-0.793724 3.37665,-1.0243 C 335.64752,70.115288 336.81808,70 338,70 Z"
               style="fill:none;stroke:#000000;stroke-width:1;stroke-linecap:butt;stroke-linejoin:miter;stroke-miterlimit:10;stroke-dasharray:none;stroke-opacity:1"
               id="path240" />
          </g>
          <g
             id="g242"
             transform="scale(3.0013709)">
            <text
               transform="translate(350,114)"
               style="font-variant:normal;font-weight:normal;font-size:12px;font-family:Arial;-inkscape-font-specification:ArialMT;writing-mode:lr-tb;fill:#000000;fill-opacity:1;fill-rule:nonzero;stroke:none"
               id="text246"><tspan
                 x="0 8.6660156 19.992188 29.988281 36.662109 43.335938 46.001953 49.335938 56.009766"
                 y="0"
                 sodipodi:role="line"
                 id="tspan244">HWmonitor</tspan></text>
            <text
               transform="translate(341.3125,128)"
               style="font-variant:normal;font-weight:normal;font-size:12px;font-family:Arial;-inkscape-font-specification:ArialMT;writing-mode:lr-tb;fill:#000000;fill-opacity:1;fill-rule:nonzero;stroke:none"
               id="text250"><tspan
                 x="0 8.0039062 16.669922 23.34375 30.017578 36.691406 43.365234 51.369141 60.035156 70.03125"
                 y="0"
                 sodipodi:role="line"
                 id="tspan248">AD5324ARMZ</tspan></text>
            <text
               transform="translate(376.5,142)"
               style="font-variant:normal;font-weight:normal;font-size:12px;font-family:Arial;-inkscape-font-specification:ArialMT;writing-mode:lr-tb;fill:#000000;fill-opacity:1;fill-rule:nonzero;stroke:none"
               id="text254"><tspan
                 x="0"
                 y="0"
                 id="tspan252">+</tspan></text>
            <text
               transform="translate(349.76563,156)"
               style="font-variant:normal;font-weight:normal;font-size:12px;font-family:Arial;-inkscape-font-specification:ArialMT;writing-mode:lr-tb;fill:#000000;fill-opacity:1;fill-rule:nonzero;stroke:none"
               id="text258"><tspan
                 x="0 6.6738281 12.673828 16.007812 25.341797 32.455078 40.458984 47.132812 53.806641"
                 y="0"
                 sodipodi:role="line"
                 id="tspan256">4x OPA197</tspan></text>
          </g>
        </g>
      </g>
    </g>
  </g>
</svg>
